<svg xmlns="http://www.w3.org/2000/svg" width="520" height="520" viewBox="0 0 520 520" fill="none">
  <defs>
    <pattern id="dots" width="13" height="13" patternUnits="userSpaceOnUse"><circle cx="1" cy="1" r=".7" fill="#fff" opacity=".22"/></pattern>
    <linearGradient id="ink" x1="140" y1="140" x2="360" y2="380" gradientUnits="userSpaceOnUse"><stop stop-color="#fff"/><stop offset="1" stop-color="#a8bbff"/></linearGradient>
    <radialGradient id="halo"><stop stop-color="#b0bdff" stop-opacity=".2"/><stop offset="1" stop-color="#b0bdff" stop-opacity="0"/></radialGradient>
    <g id="orbit"><ellipse cx="260" cy="260" rx="226" ry="98"/></g>
    <g id="cross"><path d="M-5 0H5M0-5V5"/></g>
  </defs>
  <path fill="url(#dots)" d="M0 0h520v520H0z"/>
  <circle cx="260" cy="260" r="252" fill="url(#halo)"/>
  <g stroke="#e1e7ff" stroke-width=".8" opacity=".5">
    <use href="#orbit"/>
    <use href="#orbit" transform="rotate(15 260 260)"/>
    <use href="#orbit" transform="rotate(30 260 260)"/>
    <use href="#orbit" transform="rotate(45 260 260)"/>
    <use href="#orbit" transform="rotate(60 260 260)"/>
    <use href="#orbit" transform="rotate(75 260 260)"/>
    <use href="#orbit" transform="rotate(90 260 260)"/>
    <use href="#orbit" transform="rotate(105 260 260)"/>
    <use href="#orbit" transform="rotate(120 260 260)"/>
    <use href="#orbit" transform="rotate(135 260 260)"/>
    <use href="#orbit" transform="rotate(150 260 260)"/>
    <use href="#orbit" transform="rotate(165 260 260)"/>
  </g>
  <g stroke="#fff" opacity=".3">
    <circle cx="260" cy="260" r="244" stroke-dasharray="1 7"/>
    <path d="M260 6v52m0 404v52M6 260h52m404 0h52"/>
    <use href="#cross" transform="translate(28 28)"/><use href="#cross" transform="translate(492 28)"/>
    <use href="#cross" transform="translate(28 492)"/><use href="#cross" transform="translate(492 492)"/>
  </g>
  <g fill="#e1e7ff"><circle cx="260" cy="34" r="4"/><circle cx="456" cy="373" r="4"/><circle cx="64" cy="373" r="4"/></g>
  <!-- Custom outlined a1 monogram; no font or external artwork dependency. -->
  <g fill="url(#ink)" stroke="#152bd1" stroke-width="7" paint-order="stroke">
    <path fill-rule="evenodd" d="M139 211h69c28 0 43 15 43 42v77h-27l-3-13c-9 11-23 16-41 16-29 0-46-15-46-38 0-26 19-42 53-42h30v-3c0-12-7-18-21-18h-57v-21zm78 64h-26c-17 0-25 6-25 17 0 10 7 16 20 16 18 0 31-10 31-25v-8z"/>
    <path d="M283 205l42-29h29v125h32v29H281v-29h38v-88l-36 23v-31z"/>
  </g>
  <path d="M186 364h148" stroke="#fff" opacity=".5"/>
  <g fill="#fff" opacity=".8"><path d="M254 360h4v8h-4zM262 360h4v8h-4z"/></g>
</svg>
